<?xml version="1.0" encoding="utf-8"?>
<!-- Generator: Adobe Illustrator 23.1.1, SVG Export Plug-In . SVG Version: 6.00 Build 0)  -->
<svg version="1.1" xmlns="http://www.w3.org/2000/svg" xmlns:xlink="http://www.w3.org/1999/xlink" x="0px" y="0px"
	 viewBox="0 0 612 792" style="enable-background:new 0 0 612 792;" xml:space="preserve">
<style type="text/css">
	.st0{fill:#FFFFFF;}
	.st1{fill:#006838;}
</style>
<g id="Layer_1">
	<rect width="612" height="792"/>
</g>
<g id="Layer_2">
	<g>
		<g>
			<path class="st0" d="M387.03,628.12c0.64,0,0.64-1,0-1C386.39,627.12,386.39,628.12,387.03,628.12L387.03,628.12z"/>
		</g>
	</g>
	<g>
		<g>
			<path class="st0" d="M161.59,583.34c0.64,0,0.64-1,0-1C160.95,582.34,160.95,583.34,161.59,583.34L161.59,583.34z"/>
		</g>
	</g>
	<g>
		<g>
			<path class="st0" d="M425.64,557.09c0.64,0,0.64-1,0-1C424.99,556.09,424.99,557.09,425.64,557.09L425.64,557.09z"/>
		</g>
	</g>
	<g>
		<g>
			<path class="st0" d="M256.49,448.03c0.64,0,0.64-1,0-1C255.85,447.03,255.85,448.03,256.49,448.03L256.49,448.03z"/>
		</g>
	</g>
	<g>
		<g>
			<path class="st0" d="M359.15,406.45c0.64,0,0.64-1,0-1C358.51,405.45,358.51,406.45,359.15,406.45L359.15,406.45z"/>
		</g>
	</g>
	<g>
		<g>
			<path class="st0" d="M48.57,422.04c0.64,0,0.64-1,0-1C47.93,421.04,47.93,422.04,48.57,422.04L48.57,422.04z"/>
		</g>
	</g>
	<g>
		<g>
			<path class="st0" d="M221.41,223.22c0.64,0,0.64-1,0-1C220.76,222.22,220.76,223.22,221.41,223.22L221.41,223.22z"/>
		</g>
	</g>
	<g>
		<g>
			<path class="st0" d="M431.93,246.61c0.64,0,0.64-1,0-1C431.28,245.61,431.28,246.61,431.93,246.61L431.93,246.61z"/>
		</g>
	</g>
	<g>
		<g>
			<path class="st0" d="M186.32,172.54c0.64,0,0.64-1,0-1C185.68,171.54,185.68,172.54,186.32,172.54L186.32,172.54z"/>
		</g>
	</g>
	<g>
		<g>
			<path class="st0" d="M472.21,154.34c0.64,0,0.64-1,0-1C471.57,153.34,471.57,154.34,472.21,154.34L472.21,154.34z"/>
		</g>
	</g>
	<g>
		<g>
			<path class="st0" d="M99.25,147.85c0.64,0,0.64-1,0-1C98.61,146.85,98.61,147.85,99.25,147.85L99.25,147.85z"/>
		</g>
	</g>
	<g>
		<g>
			<path class="st0" d="M172.61,297.45c0.64,0,0.64-1,0-1C171.96,296.45,171.96,297.45,172.61,297.45L172.61,297.45z"/>
		</g>
	</g>
	<g>
		<g>
			<path class="st0" d="M336.89,363.16c0.64,0,0.64-1,0-1C336.24,362.16,336.24,363.16,336.89,363.16L336.89,363.16z"/>
		</g>
	</g>
	<g>
		<g>
			<path class="st0" d="M166.63,443.81c0.64,0,0.64-1,0-1C165.99,442.81,165.99,443.81,166.63,443.81L166.63,443.81z"/>
		</g>
	</g>
	<g>
		<g>
			<path class="st0" d="M77.02,603.61c0.64,0,0.64-1,0-1C76.38,602.61,76.38,603.61,77.02,603.61L77.02,603.61z"/>
		</g>
	</g>
	<g>
		<g>
			<path class="st0" d="M109.88,715.62c0.64,0,0.64-1,0-1C109.24,714.62,109.24,715.62,109.88,715.62L109.88,715.62z"/>
		</g>
	</g>
	<g>
		<g>
			<path class="st0" d="M277.15,666.34c0.64,0,0.64-1,0-1C276.51,665.34,276.5,666.34,277.15,666.34L277.15,666.34z"/>
		</g>
	</g>
	<g>
		<g>
			<path class="st0" d="M283.12,760.42c0.64,0,0.64-1,0-1C282.48,759.42,282.48,760.42,283.12,760.42L283.12,760.42z"/>
		</g>
	</g>
	<g>
		<g>
			<path class="st0" d="M492.21,733.54c0.64,0,0.64-1,0-1C491.57,732.54,491.57,733.54,492.21,733.54L492.21,733.54z"/>
		</g>
	</g>
	<g>
		<g>
			<path class="st0" d="M523.57,561.79c0.64,0,0.64-1,0-1C522.93,560.79,522.93,561.79,523.57,561.79L523.57,561.79z"/>
		</g>
	</g>
	<g>
		<g>
			<path class="st0" d="M363.77,491.6c0.64,0,0.64-1,0-1C363.13,490.6,363.13,491.6,363.77,491.6L363.77,491.6z"/>
		</g>
	</g>
	<g>
		<g>
			<path class="st0" d="M540,403.48c0.64,0,0.64-1,0-1C539.36,402.48,539.36,403.48,540,403.48L540,403.48z"/>
		</g>
	</g>
	<g>
		<g>
			<path class="st0" d="M362.28,333.29c0.64,0,0.64-1,0-1C361.63,332.29,361.63,333.29,362.28,333.29L362.28,333.29z"/>
		</g>
	</g>
	<g>
		<g>
			<path class="st0" d="M577.34,198.88c0.64,0,0.64-1,0-1C576.69,197.88,576.69,198.88,577.34,198.88L577.34,198.88z"/>
		</g>
	</g>
	<g>
		<g>
			<path class="st0" d="M380.2,145.11c0.64,0,0.64-1,0-1C379.56,144.11,379.55,145.11,380.2,145.11L380.2,145.11z"/>
		</g>
	</g>
	<g>
		<g>
			<path class="st0" d="M502.66,33.1c0.64,0,0.64-1,0-1C502.02,32.1,502.02,33.1,502.66,33.1L502.66,33.1z"/>
		</g>
	</g>
	<g>
		<g>
			<path class="st0" d="M227.86,39.08c0.64,0,0.64-1,0-1C227.22,38.08,227.22,39.08,227.86,39.08L227.86,39.08z"/>
		</g>
	</g>
	<g>
		<g>
			<path class="st0" d="M26.25,71.93c0.64,0,0.64-1,0-1C25.6,70.93,25.6,71.93,26.25,71.93L26.25,71.93z"/>
		</g>
	</g>
	<g>
		<g>
			<path class="st0" d="M99.43,298.94c0.64,0,0.64-1,0-1C98.78,297.94,98.78,298.94,99.43,298.94L99.43,298.94z"/>
		</g>
	</g>
	<g>
		<g>
			<path class="st0" d="M239.49,384.92c0.64,0,0.64-1,0-1C238.85,383.92,238.85,384.92,239.49,384.92L239.49,384.92z"/>
		</g>
	</g>
	<g>
		<g>
			<path class="st0" d="M291.6,276.08c0.64,0,0.64-1,0-1C290.95,275.08,290.95,276.08,291.6,276.08L291.6,276.08z"/>
		</g>
	</g>
	<g>
		<g>
			<path class="st0" d="M224.44,138.29c0.64,0,0.64-1,0-1C223.8,137.29,223.8,138.29,224.44,138.29L224.44,138.29z"/>
		</g>
	</g>
	<g>
		<g>
			<path class="st0" d="M346.02,111.66c0.64,0,0.64-1,0-1C345.37,110.66,345.37,111.66,346.02,111.66L346.02,111.66z"/>
		</g>
	</g>
	<g>
		<g>
			<path class="st0" d="M363.39,200.82c0.64,0,0.64-1,0-1C362.74,199.82,362.74,200.82,363.39,200.82L363.39,200.82z"/>
		</g>
	</g>
	<g>
		<g>
			<path class="st0" d="M539.38,119.77c0.64,0,0.64-1,0-1C538.74,118.77,538.74,119.77,539.38,119.77L539.38,119.77z"/>
		</g>
	</g>
	<g>
		<g>
			<path class="st0" d="M468.75,354.81c0.64,0,0.64-1,0-1C468.11,353.81,468.11,354.81,468.75,354.81L468.75,354.81z"/>
		</g>
	</g>
	<g>
		<g>
			<path class="st0" d="M264.97,550.49c0.64,0,0.64-1,0-1C264.32,549.49,264.32,550.49,264.97,550.49L264.97,550.49z"/>
		</g>
	</g>
	<g>
		<g>
			<path class="st0" d="M107.5,506.49c0.64,0,0.64-1,0-1C106.85,505.49,106.85,506.49,107.5,506.49L107.5,506.49z"/>
		</g>
	</g>
	<g>
		<g>
			<path class="st0" d="M179.28,685.96c0.64,0,0.64-1,0-1C178.64,684.96,178.64,685.96,179.28,685.96L179.28,685.96z"/>
		</g>
	</g>
	<g>
		<g>
			<path class="st0" d="M47.29,239.03c0.64,0,0.64-1,0-1C46.64,238.03,46.64,239.03,47.29,239.03L47.29,239.03z"/>
		</g>
	</g>
	<g>
		<g>
			<path class="st0" d="M122.55,59.56c0.64,0,0.64-1,0-1C121.91,58.56,121.9,59.56,122.55,59.56L122.55,59.56z"/>
		</g>
	</g>
	<g>
		<g>
			<path class="st0" d="M393.85,56.76c0.64,0,0.64-1,0-1C393.21,55.76,393.21,56.76,393.85,56.76L393.85,56.76z"/>
		</g>
	</g>
	<g>
		<g>
			<path class="st0" d="M542.36,323.21c0.64,0,0.64-1,0-1C541.71,322.21,541.71,323.21,542.36,323.21L542.36,323.21z"/>
		</g>
	</g>
	<g>
		<g>
			<path class="st0" d="M463.52,455.83c0.64,0,0.64-1,0-1C462.88,454.83,462.88,455.83,463.52,455.83L463.52,455.83z"/>
		</g>
	</g>
	<g>
		<g>
			<path class="st0" d="M435.41,691.11c0.64,0,0.64-1,0-1C434.77,690.11,434.77,691.11,435.41,691.11L435.41,691.11z"/>
		</g>
	</g>
	<g>
		<g>
			<path class="st1" d="M130.71,404.19c0.64,0,0.64-1,0-1C130.07,403.19,130.07,404.19,130.71,404.19L130.71,404.19z"/>
		</g>
	</g>
	<g>
		<g>
			<path class="st1" d="M187.77,366.53c0.64,0,0.64-1,0-1C187.12,365.53,187.12,366.53,187.77,366.53L187.77,366.53z"/>
		</g>
	</g>
	<g>
		<g>
			<path class="st0" d="M273.71,469.62c0.64,0,0.64-1,0-1C273.06,468.62,273.06,469.62,273.71,469.62L273.71,469.62z"/>
		</g>
	</g>
	<g>
		<g>
			<path class="st0" d="M407.28,439.08c0.64,0,0.64-1,0-1C406.64,438.08,406.64,439.08,407.28,439.08L407.28,439.08z"/>
		</g>
	</g>
	<g>
		<g>
			<path class="st0" d="M417.46,299.15c0.64,0,0.64-1,0-1C416.82,298.15,416.82,299.15,417.46,299.15L417.46,299.15z"/>
		</g>
	</g>
	<g>
		<g>
			<path class="st0" d="M173.21,353.85c0.64,0,0.64-1,0-1C172.56,352.85,172.56,353.85,173.21,353.85L173.21,353.85z"/>
		</g>
	</g>
	<g>
		<g>
			<path class="st0" d="M495.06,263.53c0.64,0,0.64-1,0-1C494.42,262.53,494.42,263.53,495.06,263.53L495.06,263.53z"/>
		</g>
	</g>
	<g>
		<g>
			<path class="st0" d="M517.96,220.27c0.64,0,0.64-1,0-1C517.32,219.27,517.32,220.27,517.96,220.27L517.96,220.27z"/>
		</g>
	</g>
	<g>
		<g>
			<path class="st0" d="M210.1,600.65c0.64,0,0.64-1,0-1C209.45,599.65,209.45,600.65,210.1,600.65L210.1,600.65z"/>
		</g>
	</g>
	<g>
		<g>
			<path class="st0" d="M58.71,730.41c0.64,0,0.64-1,0-1C58.07,729.41,58.07,730.41,58.71,730.41L58.71,730.41z"/>
		</g>
	</g>
	<g>
		<g>
			<path class="st0" d="M191.02,771.12c0.64,0,0.64-1,0-1C190.37,770.12,190.37,771.12,191.02,771.12L191.02,771.12z"/>
		</g>
	</g>
	<g>
		<g>
			<path class="st0" d="M585.39,750.77c0.64,0,0.64-1,0-1C584.74,749.77,584.74,750.77,585.39,750.77L585.39,750.77z"/>
		</g>
	</g>
	<g>
		<g>
			<path class="st0" d="M517.96,668.08c0.64,0,0.64-1,0-1C517.32,667.08,517.32,668.08,517.96,668.08L517.96,668.08z"/>
		</g>
	</g>
	<g>
		<g>
			<path class="st0" d="M75.25,357.67c0.64,0,0.64-1,0-1C74.61,356.67,74.6,357.67,75.25,357.67L75.25,357.67z"/>
		</g>
	</g>
	<g>
		<g>
			<path class="st0" d="M143.95,211.37c0.64,0,0.64-1,0-1C143.3,210.37,143.3,211.37,143.95,211.37L143.95,211.37z"/>
		</g>
	</g>
	<g>
		<g>
			<path class="st0" d="M301.69,207.55c0.64,0,0.64-1,0-1C301.05,206.55,301.05,207.55,301.69,207.55L301.69,207.55z"/>
		</g>
	</g>
	<g>
		<g>
			<path class="st0" d="M250.92,318.77c0.64,0,0.64-1,0-1C250.28,317.77,250.28,318.77,250.92,318.77L250.92,318.77z"/>
		</g>
	</g>
	<g>
		<g>
			<path class="st0" d="M355.42,281.84c0.64,0,0.64-1,0-1C354.78,280.84,354.78,281.84,355.42,281.84L355.42,281.84z"/>
		</g>
	</g>
	<g>
		<g>
			<path class="st0" d="M191.47,103.47c0.64,0,0.64-1,0-1C190.83,102.47,190.83,103.47,191.47,103.47L191.47,103.47z"/>
		</g>
	</g>
	<g>
		<g>
			<path class="st0" d="M295.97,93.56c0.64,0,0.64-1,0-1C295.32,92.56,295.32,93.56,295.97,93.56L295.97,93.56z"/>
		</g>
	</g>
	<g>
		<g>
			<path class="st0" d="M39.23,144.01c0.64,0,0.64-1,0-1C38.59,143.01,38.58,144.01,39.23,144.01L39.23,144.01z"/>
		</g>
	</g>
	<g>
		<g>
			<path class="st0" d="M80.67,20.6c0.64,0,0.64-1,0-1C80.02,19.6,80.02,20.6,80.67,20.6L80.67,20.6z"/>
		</g>
	</g>
	<g>
		<g>
			<path class="st0" d="M481.54,99.87c0.64,0,0.64-1,0-1C480.89,98.87,480.89,99.87,481.54,99.87L481.54,99.87z"/>
		</g>
	</g>
	<g>
		<g>
			<path class="st0" d="M546.4,473.72c0.64,0,0.64-1,0-1C545.75,472.72,545.75,473.72,546.4,473.72L546.4,473.72z"/>
		</g>
	</g>
	<g>
		<g>
			<path class="st0" d="M322.99,592.63c0.64,0,0.64-1,0-1C322.35,591.63,322.35,592.63,322.99,592.63L322.99,592.63z"/>
		</g>
	</g>
	<g>
		<g>
			<path class="st0" d="M377.94,698.02c0.64,0,0.64-1,0-1C377.3,697.02,377.3,698.02,377.94,698.02L377.94,698.02z"/>
		</g>
	</g>
	<g>
		<g>
			<path class="st0" d="M85.17,667.39c0.64,0,0.64-1,0-1C84.53,666.39,84.53,667.39,85.17,667.39L85.17,667.39z"/>
		</g>
	</g>
	<g>
		<g>
			<path class="st0" d="M46.63,540.8c0.64,0,0.64-1,0-1C45.98,539.8,45.98,540.8,46.63,540.8L46.63,540.8z"/>
		</g>
	</g>
	<g>
		<g>
			<path class="st0" d="M324.05,421.99c0.64,0,0.64-1,0-1C323.4,420.99,323.4,421.99,324.05,421.99L324.05,421.99z"/>
		</g>
	</g>
	<g>
		<g>
			<path class="st0" d="M303.04,506.02c0.64,0,0.64-1,0-1C302.4,505.02,302.39,506.02,303.04,506.02L303.04,506.02z"/>
		</g>
	</g>
	<g>
		<g>
			<path class="st0" d="M193.8,500.42c0.64,0,0.64-1,0-1C193.15,499.42,193.15,500.42,193.8,500.42L193.8,500.42z"/>
		</g>
	</g>
	<g>
		<g>
			<path class="st0" d="M312.84,134.87c0.64,0,0.64-1,0-1C312.2,133.87,312.2,134.87,312.84,134.87L312.84,134.87z"/>
		</g>
	</g>
	<g>
		<g>
			<path class="st0" d="M315.64,39.64c0.64,0,0.64-1,0-1C315,38.64,315,39.64,315.64,39.64L315.64,39.64z"/>
		</g>
	</g>
	<g>
		<g>
			<path class="st0" d="M426.78,116.11c0.64,0,0.64-1,0-1C426.13,115.11,426.13,116.11,426.78,116.11L426.78,116.11z"/>
		</g>
	</g>
	<g>
		<g>
			<path class="st0" d="M412.34,197.65c0.64,0,0.64-1,0-1C411.7,196.65,411.69,197.65,412.34,197.65L412.34,197.65z"/>
		</g>
	</g>
	<g>
		<g>
			<path class="st0" d="M474.34,234.16c0.64,0,0.64-1,0-1C473.69,233.16,473.69,234.16,474.34,234.16L474.34,234.16z"/>
		</g>
	</g>
	<g>
		<g>
			<path class="st0" d="M568.61,167.07c0.64,0,0.64-1,0-1C567.96,166.07,567.96,167.07,568.61,167.07L568.61,167.07z"/>
		</g>
	</g>
	<g>
		<g>
			<path class="st0" d="M555.87,42.23c0.64,0,0.64-1,0-1C555.23,41.23,555.22,42.23,555.87,42.23L555.87,42.23z"/>
		</g>
	</g>
	<g>
		<g>
			<path class="st0" d="M564.36,272.38c0.64,0,0.64-1,0-1C563.72,271.38,563.72,272.38,564.36,272.38L564.36,272.38z"/>
		</g>
	</g>
	<g>
		<g>
			<path class="st0" d="M408.94,369.2c0.64,0,0.64-1,0-1C408.3,368.2,408.3,369.2,408.94,369.2L408.94,369.2z"/>
		</g>
	</g>
	<g>
		<g>
			<path class="st0" d="M594.94,424.4c0.64,0,0.64-1,0-1C594.29,423.4,594.29,424.4,594.94,424.4L594.94,424.4z"/>
		</g>
	</g>
	<g>
		<g>
			<path class="st0" d="M465,517.83c0.64,0,0.64-1,0-1C464.35,516.83,464.35,517.83,465,517.83L465,517.83z"/>
		</g>
	</g>
	<g>
		<g>
			<path class="st0" d="M582.2,550.1c0.64,0,0.64-1,0-1C581.55,549.1,581.55,550.1,582.2,550.1L582.2,550.1z"/>
		</g>
	</g>
	<g>
		<g>
			<path class="st0" d="M369.88,551.8c0.64,0,0.64-1,0-1C369.23,550.8,369.23,551.8,369.88,551.8L369.88,551.8z"/>
		</g>
	</g>
	<g>
		<g>
			<path class="st0" d="M576.25,655.41c0.64,0,0.64-1,0-1C575.61,654.41,575.61,655.41,576.25,655.41L576.25,655.41z"/>
		</g>
	</g>
	<g>
		<g>
			<path class="st0" d="M471.79,619.74c0.64,0,0.64-1,0-1C471.15,618.74,471.14,619.74,471.79,619.74L471.79,619.74z"/>
		</g>
	</g>
	<g>
		<g>
			<path class="st0" d="M374.97,740.34c0.64,0,0.64-1,0-1C374.33,739.34,374.33,740.34,374.97,740.34L374.97,740.34z"/>
		</g>
	</g>
	<g>
		<g>
			<path class="st0" d="M277.3,612.1c0.64,0,0.64-1,0-1C276.66,611.1,276.66,612.1,277.3,612.1L277.3,612.1z"/>
		</g>
	</g>
	<g>
		<g>
			<path class="st0" d="M238.24,684.29c0.64,0,0.64-1,0-1C237.59,683.29,237.59,684.29,238.24,684.29L238.24,684.29z"/>
		</g>
	</g>
	<g>
		<g>
			<path class="st0" d="M100.65,454.98c0.64,0,0.64-1,0-1C100.01,453.98,100.01,454.98,100.65,454.98L100.65,454.98z"/>
		</g>
	</g>
	<g>
		<g>
			<path class="st0" d="M16.57,491.5c0.64,0,0.64-1,0-1C15.93,490.5,15.93,491.5,16.57,491.5L16.57,491.5z"/>
		</g>
	</g>
	<g>
		<g>
			<path class="st0" d="M23.37,693.63c0.64,0,0.64-1,0-1C22.72,692.63,22.72,693.63,23.37,693.63L23.37,693.63z"/>
		</g>
	</g>
	<g>
		<g>
			<path class="st0" d="M49.69,774.31c0.64,0,0.64-1,0-1C49.05,773.31,49.05,774.31,49.69,774.31L49.69,774.31z"/>
		</g>
	</g>
	<g>
		<g>
			<path class="st0" d="M1.28,608.7c0.64,0,0.64-1,0-1C0.64,607.7,0.64,608.7,1.28,608.7L1.28,608.7z"/>
		</g>
	</g>
	<g>
		<g>
			<path class="st0" d="M31.86,306.35c0.64,0,0.64-1,0-1C31.22,305.35,31.21,306.35,31.86,306.35L31.86,306.35z"/>
		</g>
	</g>
	<g>
		<g>
			<path class="st0" d="M601.73,12.5c0.64,0,0.64-1,0-1C601.09,11.5,601.09,12.5,601.73,12.5L601.73,12.5z"/>
		</g>
	</g>
	<g>
		<g>
			<path class="st0" d="M394.5,14.2c0.64,0,0.64-1,0-1C393.86,13.2,393.86,14.2,394.5,14.2L394.5,14.2z"/>
		</g>
	</g>
	<g>
		<g>
			<path class="st0" d="M608.52,281.72c0.64,0,0.64-1,0-1C607.88,280.72,607.88,281.72,608.52,281.72L608.52,281.72z"/>
		</g>
	</g>
</g>
</svg>
